# xmcd
#
# Track frame offsets:
#	150
#	1476
#	30282
#	52284
#	79268
#	109433
#	139545
#	162154
#	190352
#	220982
#	245644
#	270704
#	302249
#
# Disc length: 4277 seconds
# Revision: 4
# Processed by: cddbd v1.5.2PL0 Copyright (c) Steve Scherf et al.
# Submitted via: dBpowerAMP V12.0
#
DISCID=bb10b30d
DTITLE=Dżem - Dżem w Operze
DYEAR=1998
DGENRE=Blues
TTITLE0=Strojenie
TTITLE1=Dzikość mego serca
TTITLE2=To tylko dwa piwa
TTITLE3=Mała aleja róż
TTITLE4=Miliony srebrnych łez
TTITLE5=Tylko ja i Ty
TTITLE6=Dzień w którym pękło niebo
TTITLE7=Sen o Victorii
TTITLE8=Wokół sami lunatycy
TTITLE9=Autsajder
TTITLE10=Naiwne pytania
TTITLE11=Wehiułl czasu - to byłby cud
TTITLE12=Zapal świeczkę
EXTD=
EXTT0=
EXTT1=
EXTT2=
EXTT3=
EXTT4=
EXTT5=
EXTT6=
EXTT7=
EXTT8=
EXTT9=
EXTT10=
EXTT11=
EXTT12=
PLAYORDER=
